<svg width="20" height="20" viewBox="0 0 20 20" fill="none" xmlns="http://www.w3.org/2000/svg">
<path d="M3.00008 16.0059H7.24008C7.37168 16.0066 7.50214 15.9814 7.62398 15.9316C7.74582 15.8819 7.85664 15.8085 7.95008 15.7159L14.8701 8.78586L17.7101 6.00586C17.8038 5.9129 17.8782 5.8023 17.929 5.68044C17.9797 5.55858 18.0059 5.42787 18.0059 5.29586C18.0059 5.16385 17.9797 5.03314 17.929 4.91128C17.8782 4.78942 17.8038 4.67882 17.7101 4.58586L13.4701 0.295859C13.3771 0.202131 13.2665 0.127737 13.1447 0.076968C13.0228 0.0261993 12.8921 6.10352e-05 12.7601 6.10352e-05C12.6281 6.10352e-05 12.4974 0.0261993 12.3755 0.076968C12.2536 0.127737 12.143 0.202131 12.0501 0.295859L9.23008 3.12586L2.29008 10.0559C2.19739 10.1493 2.12407 10.2601 2.07431 10.382C2.02454 10.5038 1.99932 10.6343 2.00008 10.7659V15.0059C2.00008 15.2711 2.10543 15.5254 2.29297 15.713C2.48051 15.9005 2.73486 16.0059 3.00008 16.0059ZM12.7601 2.41586L15.5901 5.24586L14.1701 6.66586L11.3401 3.83586L12.7601 2.41586ZM4.00008 11.1759L9.93008 5.24586L12.7601 8.07586L6.83008 14.0059H4.00008V11.1759ZM19.0001 18.0059H1.00008C0.73486 18.0059 0.480506 18.1112 0.292969 18.2988C0.105433 18.4863 7.62939e-05 18.7406 7.62939e-05 19.0059C7.62939e-05 19.2711 0.105433 19.5254 0.292969 19.713C0.480506 19.9005 0.73486 20.0059 1.00008 20.0059H19.0001C19.2653 20.0059 19.5196 19.9005 19.7072 19.713C19.8947 19.5254 20.0001 19.2711 20.0001 19.0059C20.0001 18.7406 19.8947 18.4863 19.7072 18.2988C19.5196 18.1112 19.2653 18.0059 19.0001 18.0059Z" fill="#EE5755"/>
</svg>
