<svg width="34" height="35" viewBox="0 0 34 35" fill="none" xmlns="http://www.w3.org/2000/svg">
<path d="M23.65 0.833496H9.68333C3.61667 0.833496 0 4.45016 0 10.5168V24.4668C0 30.5502 3.61667 34.1668 9.68333 34.1668H23.6333C29.7 34.1668 33.3167 30.5502 33.3167 24.4835V10.5168C33.3333 4.45016 29.7167 0.833496 23.65 0.833496ZM15.8333 26.2502C15.8333 26.8502 15.2333 27.2502 14.6833 27.0168C12.6667 26.1502 10.0333 25.3502 8.2 25.1168L7.88333 25.0835C6.86667 24.9502 6.03333 24.0002 6.03333 22.9668V10.1335C6.03333 8.85016 7.06667 7.90016 8.33333 8.00016C10.4167 8.16683 13.5 9.16683 15.4333 10.2668C15.7 10.4168 15.8333 10.7002 15.8333 10.9835V26.2502ZM27.3 22.9502C27.3 23.9835 26.4667 24.9335 25.45 25.0668L25.1 25.1002C23.2833 25.3502 20.6667 26.1335 18.65 26.9835C18.1 27.2168 17.5 26.8168 17.5 26.2168V10.9668C17.5 10.6668 17.65 10.3835 17.9167 10.2335C19.85 9.15016 22.8667 8.1835 24.9167 8.00016H24.9833C26.2667 8.00016 27.3 9.0335 27.3 10.3168V22.9502Z" fill="#EE5755"/>
</svg>
