<svg width="18" height="22" viewBox="0 0 18 22" fill="none" xmlns="http://www.w3.org/2000/svg">
<path fill-rule="evenodd" clip-rule="evenodd" d="M17.5233 14.245L15.9167 12.32L15.8162 12.21V7.59006C15.8187 6.27293 15.5077 4.97784 14.9137 3.83263C14.3198 2.68743 13.4635 1.73169 12.4294 1.05975C11.3952 0.387812 10.219 0.0229041 9.01685 0.00104352C7.81467 -0.020817 6.62807 0.301125 5.57416 0.935094C5.51274 0.969952 5.45832 1.01796 5.41413 1.07627C5.36995 1.13458 5.33689 1.202 5.31692 1.27456C5.29695 1.34711 5.29047 1.42332 5.29787 1.49867C5.30526 1.57402 5.32638 1.64697 5.35998 1.71322C5.39357 1.77947 5.43896 1.83765 5.49345 1.88434C5.54794 1.93103 5.61043 1.96526 5.67722 1.98501C5.744 2.00477 5.81373 2.00965 5.88227 1.99935C5.9508 1.98906 6.01676 1.96381 6.07622 1.92509C6.92854 1.37789 7.89989 1.09286 8.88778 1.10009C12.1304 1.10477 14.7576 3.98291 14.7619 7.53506V12.1H3.01364V7.53506C3.00048 6.6252 3.17197 5.72349 3.5157 4.89508C3.56663 4.76422 3.56853 4.61667 3.52099 4.4843C3.47346 4.35192 3.3803 4.24533 3.26164 4.18756C3.14298 4.12979 3.00833 4.12546 2.88678 4.17551C2.76523 4.22556 2.66653 4.32598 2.61199 4.45508C2.21622 5.4241 2.01095 6.47348 2.00952 7.53506V12.43L0.503327 14.245C0.163483 14.6479 -0.0170111 15.1818 0.00126403 15.73V17.325C0.00192827 17.8937 0.208435 18.4388 0.575496 18.841C0.942557 19.2431 1.44021 19.4693 1.95931 19.47H5.72478C5.84852 20.1757 6.19091 20.8129 6.69406 21.2739C7.19721 21.7349 7.83024 21.9914 8.48613 22C9.84421 22 11.0072 20.9341 11.2475 19.47H16.0171C16.5362 19.4693 17.0338 19.2431 17.4009 18.841C17.7679 18.4388 17.9744 17.8937 17.9751 17.325V15.73C18.068 15.1828 17.8973 14.6218 17.5233 14.245ZM8.53633 20.9C8.14217 20.8996 7.75858 20.7604 7.44217 20.5029C7.12576 20.2454 6.89331 19.8833 6.77911 19.47H10.2936C10.1729 19.879 9.93876 20.2366 9.62377 20.493C9.30879 20.7493 8.92865 20.8916 8.53633 20.9ZM17.0714 17.325C17.0714 17.6022 16.9709 17.868 16.792 18.0639C16.6131 18.2599 16.3705 18.37 16.1175 18.37H1.95931C1.70631 18.37 1.46368 18.2599 1.28479 18.0639C1.10589 17.868 1.00539 17.6022 1.00539 17.325V15.73C1.01262 15.4674 1.10114 15.2153 1.25642 15.015L2.7124 13.255H15.3142L16.7702 15.015C16.9254 15.2153 17.014 15.4674 17.0212 15.73V17.325H17.0714Z" fill="#EE5755"/>
</svg>
