<svg width="20" height="20" viewBox="0 0 20 20" fill="none" xmlns="http://www.w3.org/2000/svg">
<path d="M19 0H1C0.734784 0 0.48043 0.105357 0.292893 0.292893C0.105357 0.48043 0 0.734784 0 1V19C0 19.2652 0.105357 19.5196 0.292893 19.7071C0.48043 19.8946 0.734784 20 1 20H19C19.2652 20 19.5196 19.8946 19.7071 19.7071C19.8946 19.5196 20 19.2652 20 19V1C20 0.734784 19.8946 0.48043 19.7071 0.292893C19.5196 0.105357 19.2652 0 19 0Z" fill="#FFBC57"/>
<path d="M16.7104 5.20998C16.6175 5.11625 16.5069 5.04186 16.385 4.99109C16.2632 4.94032 16.1324 4.91418 16.0004 4.91418C15.8684 4.91418 15.7377 4.94032 15.6159 4.99109C15.494 5.04186 15.3834 5.11625 15.2904 5.20998L7.84044 12.67L4.71044 9.52998C4.61392 9.43674 4.49998 9.36343 4.37512 9.31423C4.25026 9.26502 4.11694 9.24089 3.98276 9.24321C3.84858 9.24553 3.71617 9.27426 3.59309 9.32776C3.47001 9.38125 3.35868 9.45846 3.26544 9.55498C3.1722 9.6515 3.09889 9.76545 3.04968 9.8903C3.00048 10.0152 2.97635 10.1485 2.97867 10.2827C2.98099 10.4168 3.00972 10.5493 3.06321 10.6723C3.1167 10.7954 3.19392 10.9067 3.29044 11L7.13044 14.84C7.2234 14.9337 7.334 15.0081 7.45586 15.0589C7.57772 15.1096 7.70843 15.1358 7.84044 15.1358C7.97245 15.1358 8.10316 15.1096 8.22502 15.0589C8.34687 15.0081 8.45748 14.9337 8.55044 14.84L16.7104 6.67998C16.8119 6.58634 16.893 6.47269 16.9484 6.34619C17.0038 6.21969 17.0324 6.08308 17.0324 5.94498C17.0324 5.80688 17.0038 5.67028 16.9484 5.54378C16.893 5.41728 16.8119 5.30363 16.7104 5.20998Z" fill="white"/>
</svg>
