<svg width="250" height="42" viewBox="0 0 250 42" fill="none" xmlns="http://www.w3.org/2000/svg">
<path d="M98.5238 32.5282H94.8906V30.6588H104.036V32.5282H100.403V41.7507H98.3985V32.5282H98.5238ZM113.056 41.7507H106.417V30.6588H112.806V32.5282H108.296V35.27H112.305V37.1395H108.296V40.0059H112.931V41.7507H113.056ZM122.703 30.6588H124.958L121.2 36.0178L125.083 41.6261H122.828L119.947 37.5134L117.065 41.6261H114.81L118.694 36.0178L114.936 30.6588H117.191L119.947 34.6469L122.703 30.6588ZM136.484 41.7507H134.48V37.0148H129.468V41.7507H127.464V30.6588H129.468V35.1454H134.605V30.6588H136.484V41.7507ZM139.365 36.2671C139.365 34.6469 139.867 33.276 140.994 32.1543C142.122 31.0326 143.5 30.5341 145.128 30.5341C146.757 30.5341 148.135 31.0326 149.263 32.1543C150.39 33.276 150.891 34.6469 150.891 36.2671C150.891 37.8872 150.39 39.2582 149.263 40.3798C148.135 41.5015 146.757 42 145.128 42C143.5 42 142.122 41.5015 140.994 40.3798C139.867 39.2582 139.365 37.8872 139.365 36.2671ZM141.37 36.2671C141.37 37.3887 141.746 38.2611 142.372 39.0089C142.999 39.7567 144.001 40.1306 145.003 40.1306C146.131 40.1306 147.008 39.7567 147.759 39.0089C148.386 38.2611 148.762 37.3887 148.762 36.2671C148.762 35.1454 148.386 34.1484 147.634 33.5252C146.882 32.7774 146.005 32.4036 145.003 32.4036C143.876 32.4036 142.999 32.7774 142.372 33.5252C141.746 34.1484 141.37 35.1454 141.37 36.2671ZM161.916 41.7507H160.037V32.5282H156.78L156.529 34.6469C156.404 35.8932 156.278 37.0148 156.028 37.8872C155.777 38.7596 155.652 39.5074 155.402 40.0059C155.151 40.5045 154.9 41.003 154.525 41.2522C154.149 41.5015 153.898 41.7507 153.522 41.7507C153.146 41.8754 152.771 41.8754 152.269 41.7507V39.8813C152.52 39.8813 152.645 39.8813 152.896 39.8813C153.021 39.8813 153.272 39.632 153.397 39.3828C153.648 39.1335 153.773 38.7596 153.898 38.2611C154.274 37.1395 154.525 35.3947 154.775 32.9021L154.9 30.6588H161.916V41.7507ZM164.798 36.2671C164.798 34.6469 165.299 33.276 166.426 32.1543C167.554 31.0326 168.932 30.5341 170.561 30.5341C172.189 30.5341 173.567 31.0326 174.695 32.1543C175.822 33.276 176.323 34.6469 176.323 36.2671C176.323 37.8872 175.822 39.2582 174.695 40.3798C173.567 41.5015 172.189 42 170.561 42C168.932 42 167.554 41.5015 166.426 40.3798C165.299 39.2582 164.798 37.8872 164.798 36.2671ZM166.927 36.2671C166.927 37.3887 167.303 38.2611 167.93 39.0089C168.556 39.7567 169.558 40.1306 170.561 40.1306C171.688 40.1306 172.565 39.7567 173.317 39.0089C173.943 38.2611 174.319 37.3887 174.319 36.2671C174.319 35.1454 173.943 34.1484 173.191 33.5252C172.44 32.7774 171.563 32.4036 170.561 32.4036C169.433 32.4036 168.556 32.7774 167.93 33.5252C167.178 34.1484 166.927 35.1454 166.927 36.2671ZM181.209 41.7507H179.205V30.6588H185.469V32.5282H181.209V41.7507ZM190.104 41.7507H188.1V30.6588H190.104V41.7507ZM192.986 28.7893C192.986 28.5401 193.111 28.2908 193.236 28.0415C193.487 27.9169 193.738 27.7923 193.988 27.7923C194.239 27.7923 194.489 27.9169 194.74 28.0415C194.99 28.1662 194.99 28.4154 194.99 28.7893C194.99 29.1632 194.865 29.4125 194.74 29.5371C194.615 29.6617 194.364 29.7863 193.988 29.7863C193.738 29.7863 193.487 29.6617 193.236 29.5371C193.111 29.2878 192.986 29.0386 192.986 28.7893ZM196.243 41.7507H194.239V30.6588H196.243V41.7507ZM195.617 28.7893C195.617 28.5401 195.742 28.2908 195.867 28.0415C196.118 27.9169 196.369 27.7923 196.619 27.7923C196.87 27.7923 197.12 27.9169 197.371 28.0415C197.621 28.2908 197.621 28.4154 197.621 28.7893C197.621 29.1632 197.496 29.4125 197.371 29.5371C197.245 29.7863 196.995 29.7863 196.619 29.7863C196.243 29.7863 195.993 29.6617 195.867 29.5371C195.742 29.2878 195.617 29.0386 195.617 28.7893ZM211.903 39.2582L212.655 40.7537C212.279 41.1276 211.778 41.3769 211.152 41.6261C210.525 41.8754 209.774 42 209.147 42C207.393 42 206.015 41.5015 205.013 40.3798C204.011 39.3828 203.384 38.0119 203.384 36.2671C203.384 34.6469 203.885 33.276 204.888 32.1543C205.89 31.0326 207.268 30.5341 209.022 30.5341C210.4 30.5341 211.528 30.908 212.405 31.6558L211.528 33.1513C210.776 32.6528 209.899 32.4036 209.022 32.4036C208.02 32.4036 207.143 32.7774 206.391 33.4006C205.765 34.1484 205.389 35.0208 205.389 36.2671C205.389 37.3887 205.765 38.3858 206.391 39.1335C207.143 39.8813 208.02 40.2552 209.147 40.2552C210.275 40.1306 211.152 39.8813 211.903 39.2582ZM224.181 41.7507H222.302V37.0148H217.165V41.7507H215.161V30.6588H217.165V35.1454H222.302V30.6588H224.181V41.7507ZM235.08 30.6588H237.085L233.327 39.1335C232.951 40.0059 232.45 40.6291 232.074 41.1276C231.573 41.5015 231.071 41.7507 230.32 41.7507C229.568 41.7507 229.192 41.6261 228.816 41.2522L229.443 39.632C229.693 39.7567 229.944 39.8813 230.32 39.8813C230.821 39.8813 231.197 39.632 231.447 39.1335L231.573 38.7596L226.687 30.6588H228.942L232.575 36.8902L235.08 30.6588Z" fill="#535353"/>
<path d="M92.6439 11.7151L103.418 24.8012H96.5276L87.8832 13.9585V24.8012H82.4961V0.249263H87.8832V10.2196L96.1518 0.249263H102.792L92.6439 11.7151ZM202.516 5.35906H210.032V24.8012H215.42V5.35906H222.936V0.249263H202.39V5.35906H202.516ZM118.953 14.9555L126.595 24.8012H120.08L113.691 16.0772H111.687V24.8012H106.3V0.249263H106.926C108.053 0.249263 109.306 0.249263 110.684 0.249263C112.062 0.249263 113.19 0.249263 114.067 0.249263C121.584 0.249263 123.213 4.48665 123.213 8.1009C123.213 9.97033 122.711 11.5905 121.709 12.8368C120.832 13.7092 119.955 14.457 118.953 14.9555ZM112.313 5.35906C112.062 5.35906 111.937 5.35906 111.687 5.35906V10.9674H113.691C114.819 10.9674 115.821 10.7181 116.573 10.095C117.199 9.59645 117.575 8.84867 117.575 7.97627C117.575 6.72998 117.199 5.23443 113.816 5.23443C113.691 5.23443 113.566 5.23443 113.315 5.23443C113.065 5.35906 112.689 5.35906 112.313 5.35906ZM193.871 0.249263L204.27 24.8012H198.507L196.126 18.819H186.981L184.6 24.8012H179.088L189.361 0.249263H193.871ZM191.491 7.72701L188.985 13.7092H193.996L191.491 7.72701ZM249.496 12.5875C249.496 16.2018 248.243 19.3175 245.863 21.6855C243.483 24.0534 240.351 25.2997 236.717 25.2997C233.084 25.2997 229.952 24.178 227.572 21.8101C225.192 19.4421 223.939 16.451 223.939 12.7122C223.939 9.22256 225.192 6.10683 227.572 3.73888C229.952 1.37092 233.084 0.124634 236.717 0.124634C240.351 0.124634 243.483 1.2463 245.863 3.61425C248.243 5.73294 249.496 8.84867 249.496 12.5875ZM241.979 17.9466C243.357 16.451 243.984 14.7062 243.984 12.4629C243.984 10.2196 243.357 8.47478 241.854 6.97923C240.476 5.60831 238.722 4.86054 236.717 4.86054C234.588 4.86054 232.959 5.60831 231.581 6.97923C230.203 8.35015 229.576 10.2196 229.576 12.4629C229.576 14.7062 230.203 16.451 231.581 17.822C232.959 19.3175 234.588 19.9407 236.717 19.9407C238.972 20.0653 240.601 19.4421 241.979 17.9466ZM176.081 0.249263L169.817 16.451L163.303 0.249263H157.54L167.687 24.8012H171.696L181.594 0.249263H176.081Z" fill="#535353"/>
<path d="M153.103 2.49432C151.596 0.997728 149.586 0.124716 147.451 0.124716C145.316 0.124716 143.307 0.997728 141.8 2.49432L141.423 2.86847L140.92 2.3696C139.413 0.873012 137.404 0 135.269 0C133.133 0 131.124 0.873012 129.617 2.3696C128.11 3.8662 127.23 5.86165 127.23 7.98182C127.23 10.102 128.11 12.0975 129.617 13.594L140.544 24.4443C140.795 24.6938 141.046 24.8185 141.423 24.8185C141.8 24.8185 142.051 24.6938 142.302 24.4443L153.229 13.594C154.736 12.0975 155.615 10.102 155.615 7.98182C155.615 5.86165 154.736 3.99091 153.103 2.49432Z" fill="#00B5FF"/>
<mask id="mask0_118_8941" style="mask-type:alpha" maskUnits="userSpaceOnUse" x="127" y="0" width="29" height="25">
<path d="M153.103 2.49432C151.596 0.997728 149.586 0.124716 147.451 0.124716C145.316 0.124716 143.307 0.997728 141.8 2.49432L141.423 2.86847L140.92 2.3696C139.413 0.873012 137.404 0 135.269 0C133.133 0 131.124 0.873012 129.617 2.3696C128.11 3.8662 127.23 5.86165 127.23 7.98182C127.23 10.102 128.11 12.0975 129.617 13.594L140.544 24.4443C140.795 24.6938 141.046 24.8185 141.423 24.8185C141.8 24.8185 142.051 24.6938 142.302 24.4443L153.229 13.594C154.736 12.0975 155.615 10.102 155.615 7.98182C155.615 5.86165 154.736 3.99091 153.103 2.49432Z" fill="#00B5FF"/>
</mask>
<g mask="url(#mask0_118_8941)">
<rect x="126.293" y="10.3227" width="30.0675" height="15.0844" fill="#FFBC00"/>
</g>
<path d="M7.23477 14.4V40.8C7.23477 41.52 6.75246 42 6.02898 42H1.2058C0.482318 42 0 41.52 0 40.8V14.4C0 13.68 0.482318 13.2 1.2058 13.2H6.02898C6.75246 13.2 7.23477 13.8 7.23477 14.4ZM72.7942 13.2H67.971C67.2476 13.2 66.7652 13.68 66.7652 14.4V40.8C66.7652 41.52 67.2476 42 67.971 42H72.7942C73.5177 42 74 41.52 74 40.8V14.4C74 13.8 73.5177 13.2 72.7942 13.2Z" fill="#FFBC57"/>
<path d="M64.3518 21.6V28.8C64.3518 29.52 63.8695 30 63.146 30H10.8503C10.1268 30 9.64453 29.52 9.64453 28.8V21.6C9.64453 20.88 10.1268 20.4 10.8503 20.4H63.146C63.8695 20.4 64.3518 20.88 64.3518 21.6ZM10.8503 18H25.0668C25.7902 18 26.2726 17.52 26.2726 16.8V1.2C26.2726 0.48 25.7902 0 25.0668 0H10.8503C10.1268 0 9.64453 0.48 9.64453 1.2V16.8C9.64453 17.52 10.1268 18 10.8503 18ZM29.89 18H44.1064C44.8299 18 45.3122 17.52 45.3122 16.8V1.2C45.3122 0.48 44.8299 0 44.1064 0H29.89C29.1665 0 28.6842 0.48 28.6842 1.2V16.8C28.6842 17.52 29.1665 18 29.89 18ZM63.146 0H48.9296C48.2061 0 47.7238 0.48 47.7238 1.2V16.8C47.7238 17.52 48.2061 18 48.9296 18H63.146C63.8695 18 64.3518 17.52 64.3518 16.8V1.2C64.3518 0.48 63.8695 0 63.146 0ZM63.146 32.4H10.8503C10.1268 32.4 9.64453 32.88 9.64453 33.6V40.8C9.64453 41.52 10.1268 42 10.8503 42H17.832C18.5555 42 19.0378 41.52 19.0378 40.8V39.6H54.9586V40.8C54.9586 41.52 55.4409 42 56.1643 42H63.146C63.8695 42 64.3518 41.52 64.3518 40.8V33.6C64.3518 32.88 63.8695 32.4 63.146 32.4Z" fill="#FFBC57"/>
</svg>
