<svg viewBox="0 0 20 20" xmlns="http://www.w3.org/2000/svg" xmlns:xlink="http://www.w3.org/1999/xlink" width="20.000000" height="19.999981" fill="none" customFrame="#000000">
	<path id="Vector" d="M5.8 1.14441e-05L14.2 1.14441e-05C17.4032 1.14441e-05 20 2.59676 20 5.80001L20 14.2C20 17.4033 17.4032 20 14.2 20L5.8 20C2.59675 20 0 17.4033 0 14.2L0 5.80001C0 2.59676 2.59675 1.14441e-05 5.8 1.14441e-05ZM5.6 1.99999C3.61177 1.99999 2 3.61177 2 5.59999L2 14.4C2 16.3882 3.61177 18 5.6 18L14.4 18C16.3882 18 18 16.3882 18 14.4L18 5.59999C18 3.61177 16.3882 1.99999 14.4 1.99999L5.6 1.99999ZM15.25 3.49999C15.9404 3.49999 16.5 4.05964 16.5 4.74999C16.5 5.44035 15.9404 5.99999 15.25 5.99999C14.5596 5.99999 14 5.44035 14 4.74999C14 4.05964 14.5596 3.49999 15.25 3.49999ZM10 4.99999C12.7614 4.99999 15 7.23857 15 9.99999C15 12.7614 12.7614 15 10 15C7.23857 15 5 12.7614 5 9.99999C5 7.23857 7.23857 4.99999 10 4.99999ZM10 6.99999C8.3431 6.99999 7 8.34319 7 9.99999C7 11.6569 8.3431 13 10 13C11.6569 13 13 11.6569 13 9.99999C13 8.34319 11.6569 6.99999 10 6.99999Z" fill="rgb(255,255,255)" fill-rule="nonzero" />
</svg>
